<svg width="45" height="43.00000000000001" xmlns="http://www.w3.org/2000/svg" fill="none">
 <g>
  <path id="svg_1" fill="#4640DE" d="m31.97115,13.08744c-0.9662,1.2677 -1.875,2.4728 -2.8049,3.6615c-0.0865,0.1106 -0.305,0.1653 -0.4627,0.1659c-3.1599,0.0139 -6.3196,0.0145 -9.4795,0.0231c-0.396,0.0009 -0.793,0.0167 -1.1874,0.0512c-0.6135,0.0531 -0.9516,0.384 -0.9829,0.9279c-0.0326,0.5667 0.2329,0.9089 0.8464,1.0417c0.2553,0.0553 0.523,0.0752 0.785,0.0758c2.7044,0.0067 5.4088,0.0023 8.1129,0.0086c1.3796,0.0034 2.7245,0.1678 3.9452,0.8881c0.9553,0.5635 1.5128,1.4058 1.6043,2.4888c0.0586,0.6926 0.0178,1.4125 -0.1062,2.0971c-0.2394,1.3207 -1.0543,2.2302 -2.2665,2.7875c-1.0027,0.4608 -2.0646,0.6912 -3.1616,0.6938c-4.8058,0.0114 -9.6119,0.0029 -14.4178,0.0005c-0.043,0 -0.0856,-0.0135 -0.182,-0.0299c0.0648,-0.1109 0.109,-0.2095 0.1732,-0.2934c0.8128,-1.0596 1.6336,-2.113 2.4383,-3.1792c0.1596,-0.2116 0.3319,-0.2816 0.5913,-0.2809c3.5862,0.0048 7.1725,0.0022 10.7584,-0.0073c0.3352,-0.001 0.6779,-0.0268 1.0034,-0.1005c0.5596,-0.1266 0.8222,-0.5132 0.8071,-1.0975c-0.0133,-0.5001 -0.2783,-0.8149 -0.8349,-0.9214c-0.3138,-0.0599 -0.64,-0.0779 -0.9612,-0.0789c-2.7335,-0.0073 -5.4673,0.0043 -8.2011,-0.014c-1.017,-0.0068 -2.0167,-0.1609 -2.9645,-0.5663c-1.3021,-0.5572 -2.1188,-1.5136 -2.3293,-2.9194c-0.2405,-1.6046 0.1043,-3.0445 1.4042,-4.1276c0.8369,-0.6975 1.8555,-1.0047 2.913,-1.1498c0.7538,-0.103 1.5199,-0.1634 2.2806,-0.1653c4.1297,-0.011 8.2596,0.0019 12.3898,0.0073c0.0701,0 0.1403,0.006 0.2894,0.0126z"/>
  <path id="svg_2" fill="#4640DE" d="m43.908,21.1795c-0.0338,3.9123 -0.7348,7.1052 -2.1885,10.127c-0.2435,0.5063 -0.4407,0.6411 -0.97,0.4325c-0.5651,-0.2228 -1.1354,-0.5065 -1.6014,-0.8877c-0.7355,-0.6018 -1.3909,-1.3022 -2.0648,-1.9764c-0.0714,-0.0713 -0.0903,-0.2707 -0.0458,-0.3719c1.0335,-2.3469 1.5344,-4.7974 1.4289,-7.3611c-0.1259,-3.0606 -1.0387,-5.8697 -2.771,-8.4028c-1.2933,-1.8913 -2.9127,-3.45066 -4.8682,-4.64627c-1.7048,-1.04233 -3.5373,-1.77588 -5.5114,-2.1267c-0.2591,-0.04613 -0.4022,-0.15675 -0.434,-0.40611c-0.1531,-1.21807 -0.3091,-2.4358 -0.4466,-3.65542c-0.0223,-0.19786 0.0273,-0.40866 0.0688,-0.6081c0.1848,-0.88872 0.2808,-0.95035 1.1752,-0.80307c5.2686,0.86819 9.6244,3.3457 13.0878,7.39967c2.5668,3.005 4.1957,6.4544 4.8424,10.3481c0.1915,1.1532 0.2392,2.3302 0.2986,2.9383z"/>
  <path id="svg_3" fill="#4640DE" d="m0.84912,21.3531c0.35462,-7.3229 3.42059,-13.46022 9.85288,-17.72215c3.1108,-2.06096 6.5785,-3.19052 10.3149,-3.47781c0.505,-0.03887 0.7695,0.21081 0.7999,0.60398c0.0588,0.76515 0.0831,1.54832 -0.0168,2.30558c-0.0986,0.74871 -0.3802,1.47215 -0.5568,2.21265c-0.0617,0.25823 -0.1802,0.34577 -0.44,0.37326c-2.1706,0.23104 -4.2319,0.83406 -6.1364,1.90926c-4.621,2.60863 -7.32319,6.55833 -8.16386,11.77913c-0.42352,2.6289 -0.12454,5.1993 0.71646,7.7178c0.049,0.1468 0.03193,0.4028 -0.06383,0.4969c-0.92286,0.909 -1.90831,1.7474 -3.07895,2.3244c-0.3464,0.1706 -0.74557,0.2593 -1.13083,0.3128c-0.13684,0.019 -0.38874,-0.1436 -0.44468,-0.2813c-0.85018,-2.089 -1.402,-4.2518 -1.54074,-6.51c-0.03571,-0.5853 -0.06384,-1.1712 -0.11125,-2.0445z"/>
  <path id="svg_4" fill="#4640DE" d="m43.908,21.1795c-0.0338,3.9123 -0.7348,7.1052 -2.1885,10.127c-0.2435,0.5063 -0.4407,0.6411 -0.97,0.4325c-0.5651,-0.2228 -1.1354,-0.5065 -1.6014,-0.8877c-0.7355,-0.6018 -1.3909,-1.3022 -2.0648,-1.9764c-0.0714,-0.0713 -0.0903,-0.2707 -0.0458,-0.3719c1.0335,-2.3469 1.5344,-4.7974 1.4289,-7.3611c-0.1259,-3.0606 -1.0387,-5.8697 -2.771,-8.4028c-1.2933,-1.8913 -2.9127,-3.45066 -4.8682,-4.64627c-1.7048,-1.04233 -3.5373,-1.77588 -5.5114,-2.1267c-0.2591,-0.04613 -0.4022,-0.15675 -0.434,-0.40611c-0.1531,-1.21807 -0.3091,-2.4358 -0.4466,-3.65542c-0.0223,-0.19786 0.0273,-0.40866 0.0688,-0.6081c0.1848,-0.88872 0.2808,-0.95035 1.1752,-0.80307c5.2686,0.86819 9.6244,3.3457 13.0878,7.39967c2.5668,3.005 4.1957,6.4544 4.8424,10.3481c0.1915,1.1532 0.2392,2.3302 0.2986,2.9383z"/>
  <path transform="rotate(121.003 21.3847 34.3143)" stroke="null" id="svg_5" fill="#4640DE" d="m31.12391,39.36132c-0.0338,3.9123 -0.7348,7.1052 -2.1885,10.127c-0.2435,0.5063 -0.4407,0.6411 -0.97,0.4325c-0.5651,-0.2228 -1.1354,-0.5065 -1.6014,-0.8877c-0.7355,-0.6018 -1.3909,-1.3022 -2.0648,-1.9764c-0.0714,-0.0713 -0.0903,-0.2707 -0.0458,-0.3719c1.0335,-2.3469 1.5344,-4.7974 1.4289,-7.3611c-0.1259,-3.0606 -1.0387,-5.8697 -2.771,-8.4028c-1.2933,-1.8913 -2.9127,-3.45066 -4.8682,-4.64627c-1.7048,-1.04233 -3.5373,-1.77588 -5.5114,-2.1267c-0.2591,-0.04613 -0.4022,-0.15675 -0.434,-0.40611c-0.1531,-1.21807 -0.3091,-2.4358 -0.4466,-3.65542c-0.0223,-0.19786 0.0273,-0.40866 0.0688,-0.6081c0.1848,-0.88872 0.2808,-0.95035 1.1752,-0.80307c5.2686,0.86819 9.6244,3.3457 13.0878,7.39967c2.5668,3.005 4.1957,6.4544 4.8424,10.3481c0.1915,1.1532 0.2392,2.3302 0.2986,2.9383z"/>
 </g>
</svg>
