<svg width="0" height="0" class="hidden">
    <symbol fill="none" xmlns="http://www.w3.org/2000/svg" viewBox="0 0 24 24" id="arrow">
        <path d="M19 8.5L12 15.5L5 8.5" stroke="currentColor" stroke-width="2" stroke-linecap="round" stroke-linejoin="round"></path>
    </symbol>
    <symbol fill="none" xmlns="http://www.w3.org/2000/svg" viewBox="0 0 24 24" id="city">
        <g clip-path="url(#clip0_30166_180)">
            <path d="M3 21H21" stroke="currentColor" stroke-width="2" stroke-linecap="round" stroke-linejoin="round"></path>
            <path d="M5 21V7L13 3V21" stroke="currentColor" stroke-width="2" stroke-linecap="round" stroke-linejoin="round"></path>
            <path d="M19 21V11L13 7" stroke="currentColor" stroke-width="2" stroke-linecap="round" stroke-linejoin="round"></path>
            <path d="M9 9V9.01" stroke="currentColor" stroke-width="2" stroke-linecap="round" stroke-linejoin="round"></path>
            <path d="M9 12V12.01" stroke="currentColor" stroke-width="2" stroke-linecap="round" stroke-linejoin="round"></path>
            <path d="M9 15V15.01" stroke="currentColor" stroke-width="2" stroke-linecap="round" stroke-linejoin="round"></path>
            <path d="M9 18V18.01" stroke="currentColor" stroke-width="2" stroke-linecap="round" stroke-linejoin="round"></path>
        </g>
        <defs>
            <clipPath id="clip0_30166_180">
                <rect width="24" height="24" fill="currentColor"></rect>
            </clipPath>
        </defs>
    </symbol>
    <symbol fill="none" xmlns="http://www.w3.org/2000/svg" viewBox="0 0 48 48" id="conditioner">
        <mask id="mask0_30166_622" maskUnits="userSpaceOnUse" x="0" y="0" width="48" height="48">
            <rect width="48" height="48" fill="currentColor"></rect>
        </mask>
        <g mask="url(#mask0_30166_622)">
            <path d="M21.2 44C19.5 44 18.2083 43.4917 17.325 42.475C16.4417 41.4583 16 40.3 16 39C16 38.1333 16.1917 37.2917 16.575 36.475C16.9583 35.6583 17.55 34.9833 18.35 34.45C19.0833 33.9833 19.675 33.3833 20.125 32.65C20.575 31.9167 20.8833 31.1333 21.05 30.3L20.45 30C20.25 29.9 20.0667 29.7833 19.9 29.65L15.3 31.3C14.7333 31.5 14.1833 31.6667 13.65 31.8C13.1167 31.9333 12.5667 32 12 32C9.9 32 8.04167 31.0833 6.425 29.25C4.80833 27.4167 4 24.7333 4 21.2C4 19.5 4.50833 18.2083 5.525 17.325C6.54167 16.4417 7.68333 16 8.95 16C9.81667 16 10.6667 16.1917 11.5 16.575C12.3333 16.9583 13.0167 17.55 13.55 18.35C14.0167 19.0833 14.6167 19.675 15.35 20.125C16.0833 20.575 16.8667 20.8833 17.7 21.05L18 20.45C18.1 20.25 18.2167 20.0667 18.35 19.9L16.7 15.3C16.5 14.7333 16.3333 14.1833 16.2 13.65C16.0667 13.1167 16 12.5833 16 12.05C16 9.91667 16.9167 8.04167 18.75 6.425C20.5833 4.80833 23.2667 4 26.8 4C28.5 4 29.7917 4.50833 30.675 5.525C31.5583 6.54167 32 7.68333 32 8.95C32 9.81667 31.8083 10.6667 31.425 11.5C31.0417 12.3333 30.45 13.0167 29.65 13.55C28.9167 14.0167 28.325 14.6167 27.875 15.35C27.425 16.0833 27.1167 16.8667 26.95 17.7L27.55 18C27.75 18.1 27.9333 18.2167 28.1 18.35L32.7 16.65C33.2667 16.45 33.8083 16.2917 34.325 16.175C34.8417 16.0583 35.3833 16 35.95 16C38.65 16 40.6667 17.1167 42 19.35C43.3333 21.5833 44 24.0667 44 26.8C44 28.5 43.4667 29.7917 42.4 30.675C41.3333 31.5583 40.15 32 38.85 32C38.0167 32 37.2083 31.8083 36.425 31.425C35.6417 31.0417 34.9833 30.45 34.45 29.65C33.9833 28.9167 33.3833 28.325 32.65 27.875C31.9167 27.425 31.1333 27.1167 30.3 26.95L30 27.55C29.9 27.75 29.7833 27.9333 29.65 28.1L31.3 32.7C31.5 33.2333 31.6667 33.7417 31.8 34.225C31.9333 34.7083 32 35.2167 32 35.75C32.0333 37.9167 31.1333 39.8333 29.3 41.5C27.4667 43.1667 24.7667 44 21.2 44ZM24 27C24.8333 27 25.5417 26.7083 26.125 26.125C26.7083 25.5417 27 24.8333 27 24C27 23.1667 26.7083 22.4583 26.125 21.875C25.5417 21.2917 24.8333 21 24 21C23.1667 21 22.4583 21.2917 21.875 21.875C21.2917 22.4583 21 23.1667 21 24C21 24.8333 21.2917 25.5417 21.875 26.125C22.4583 26.7083 23.1667 27 24 27ZM21.7 17.4C21.9 17.3333 22.1083 17.275 22.325 17.225C22.5417 17.175 22.75 17.1333 22.95 17.1C23.2167 15.7 23.725 14.4 24.475 13.2C25.225 12 26.2167 11 27.45 10.2C27.6167 10.0667 27.75 9.9 27.85 9.7C27.95 9.5 28 9.25 28 8.95C28 8.68333 27.9 8.45833 27.7 8.275C27.5 8.09167 27.2 8 26.8 8C25.5333 8 24.1 8.275 22.5 8.825C20.9 9.375 20.0667 10.45 20 12.05C20 12.35 20.0417 12.6333 20.125 12.9C20.2083 13.1667 20.2833 13.4167 20.35 13.65L21.7 17.4ZM12 28C12.4667 28 13.0167 27.8833 13.65 27.65L17.4 26.3C17.3333 26.1 17.275 25.8917 17.225 25.675C17.175 25.4583 17.1333 25.25 17.1 25.05C15.7 24.7833 14.4 24.275 13.2 23.525C12 22.775 11 21.7833 10.2 20.55C10.0667 20.3833 9.89167 20.25 9.675 20.15C9.45833 20.05 9.21667 20 8.95 20C8.65 20 8.41667 20.1 8.25 20.3C8.08333 20.5 8 20.8 8 21.2C8 23 8.34167 24.5833 9.025 25.95C9.70833 27.3167 10.7 28 12 28ZM21.2 40C22.7667 40 24.3083 39.6833 25.825 39.05C27.3417 38.4167 28.0667 37.3167 28 35.75C28 35.4833 27.9583 35.2333 27.875 35C27.7917 34.7667 27.7167 34.55 27.65 34.35L26.3 30.6C26.1 30.6667 25.8917 30.725 25.675 30.775C25.4583 30.825 25.25 30.8667 25.05 30.9C24.7833 32.3 24.275 33.6 23.525 34.8C22.775 36 21.7833 37 20.55 37.8C20.3833 37.9333 20.2417 38.1083 20.125 38.325C20.0083 38.5417 19.9667 38.7667 20 39C20.0333 39.2667 20.1333 39.5 20.3 39.7C20.4667 39.9 20.7667 40 21.2 40ZM38.85 28C39.15 28 39.4167 27.9167 39.65 27.75C39.8833 27.5833 40 27.2667 40 26.8C40 25.5333 39.7333 24.0917 39.2 22.475C38.6667 20.8583 37.5833 20.0333 35.95 20C35.65 20 35.3667 20.0333 35.1 20.1C34.8333 20.1667 34.5833 20.2333 34.35 20.3L30.6 21.7C30.6667 21.9 30.725 22.1083 30.775 22.325C30.825 22.5417 30.8667 22.75 30.9 22.95C32.3 23.2167 33.6 23.725 34.8 24.475C36 25.225 37 26.2167 37.8 27.45C37.9 27.6167 38.05 27.75 38.25 27.85C38.45 27.95 38.65 28 38.85 28Z" fill="currentColor"></path>
        </g>
    </symbol>
    <symbol fill="none" xmlns="http://www.w3.org/2000/svg" viewBox="0 0 14 14" id="dribble">
        <path d="M13.3341 5.35999C13.6209 6.45204 13.6209 7.54396 13.334 8.63601C13.047 9.72817 12.4957 10.6823 11.6796 11.4989C10.8636 12.3155 9.9099 12.8675 8.81864 13.1546C7.72737 13.4418 6.6362 13.4418 5.54485 13.1547C4.45344 12.8675 3.49979 12.3156 2.68383 11.4991C1.86782 10.6825 1.31645 9.72823 1.02936 8.63614C0.742482 7.54411 0.742482 6.45218 1.02938 5.36005C1.31639 4.26796 1.86786 3.31369 2.68387 2.49711C3.49987 1.68054 4.45356 1.1286 5.54485 0.841426C6.63604 0.554228 7.72733 0.554394 8.81857 0.841487C9.90984 1.12872 10.8634 1.68066 11.6794 2.49719C12.4955 3.31379 13.0471 4.26812 13.3341 5.35999ZM11.0236 10.8426C11.9918 9.87368 12.517 8.70741 12.599 7.3439L12.4234 7.31467C12.353 7.30287 12.2008 7.2971 11.9666 7.297C11.7324 7.29702 11.4931 7.31357 11.2492 7.34678C11.005 7.38007 10.6967 7.44835 10.3237 7.55197C9.95085 7.65551 9.57891 7.79119 9.20797 7.95925C9.5868 9.23691 9.85234 10.4637 10.0046 11.6397C10.3872 11.4052 10.7269 11.1395 11.0236 10.8426ZM6.55526 12.3957C7.40238 12.4934 8.22228 12.3997 9.01488 12.1144C8.8548 10.9853 8.59312 9.77016 8.23008 8.46911C6.73081 9.34429 5.39164 10.3718 4.21258 11.5518C4.9271 12.0166 5.70803 12.298 6.55526 12.3957ZM2.2123 9.19862C2.4797 9.81009 2.85558 10.3581 3.33977 10.8427C3.39446 10.8974 3.43747 10.9364 3.46863 10.9599C4.88208 9.54543 6.37743 8.41229 7.95486 7.56063C7.83777 7.19336 7.72454 6.87297 7.61516 6.59942C7.59155 6.60745 7.55762 6.62391 7.51268 6.6493C7.46765 6.67482 7.43557 6.69338 7.41586 6.70518L7.1231 6.84579C6.91998 6.9396 6.63196 7.04025 6.25926 7.14766C5.88629 7.25494 5.47351 7.35173 5.02054 7.43765C4.56755 7.52356 4.04632 7.55874 3.45669 7.54298C2.86715 7.52738 2.30112 7.44346 1.75843 7.29111C1.79354 7.95139 1.94497 8.58732 2.2123 9.19862ZM3.33977 3.15343C2.42612 4.06771 1.90298 5.17736 1.77016 6.48229L1.79357 6.32988C2.23092 6.49408 2.72092 6.58204 3.26363 6.59363C3.8063 6.60527 4.28564 6.57317 4.7015 6.49703C5.1172 6.42073 5.54469 6.31329 5.98416 6.17473C6.42328 6.03595 6.7161 5.93457 6.86248 5.86986C7.0089 5.80537 7.12515 5.75366 7.21108 5.71464L7.22862 5.70887L7.24041 5.69707C6.6195 4.31018 5.92069 3.06362 5.14366 1.95798C4.45639 2.23921 3.85526 2.6377 3.33977 3.15343ZM8.33851 1.68522C7.60246 1.52695 6.87122 1.51817 6.14524 1.6588C6.88301 2.71772 7.54895 3.88395 8.14224 5.15769C9.04038 4.50143 9.78209 3.64569 10.3678 2.59086C9.75091 2.14548 9.07433 1.84355 8.33851 1.68522ZM11.0177 3.26481C10.9864 3.31163 10.9464 3.3694 10.8976 3.43769C10.8488 3.50599 10.7892 3.58914 10.7189 3.68683C10.6487 3.7844 10.5675 3.89097 10.4759 4.00617C10.3841 4.12145 10.2846 4.24252 10.1771 4.36961C10.0698 4.49659 9.95257 4.62938 9.8258 4.76806C9.69872 4.90689 9.56705 5.04457 9.43037 5.18134C9.29384 5.31797 9.14627 5.45772 8.98828 5.6003C8.83031 5.74298 8.67109 5.87465 8.51106 5.99578C8.51882 6.02714 8.53644 6.07401 8.5638 6.13653C8.59113 6.19898 8.61254 6.24603 8.6284 6.27704C8.7181 6.51547 8.81765 6.78706 8.92682 7.09185C9.30563 6.93172 9.68828 6.80071 10.075 6.69902C10.4615 6.59755 10.7834 6.52924 11.0411 6.49397C11.299 6.45889 11.5557 6.43841 11.8113 6.43254C12.0671 6.4266 12.2387 6.42864 12.3267 6.43828C12.4147 6.4481 12.4996 6.45883 12.5815 6.47053L12.5933 6.47055C12.4683 5.20468 11.959 4.11257 11.0646 3.19446L11.0177 3.26481Z" fill="currentColor"></path>
    </symbol>
    <symbol fill="none" xmlns="http://www.w3.org/2000/svg" viewBox="0 0 24 24" id="facebook">
        <path d="M15.1199 5.32003H16.9999V2.14003C16.0896 2.04538 15.175 1.99865 14.2599 2.00003C11.5399 2.00003 9.67986 3.66003 9.67986 6.70003V9.32003H6.60986V12.88H9.67986V22H13.3599V12.88H16.4199L16.8799 9.32003H13.3599V7.05003C13.3599 6.00003 13.6399 5.32003 15.1199 5.32003Z" fill="currentColor"></path>
    </symbol>
    <symbol fill="none" xmlns="http://www.w3.org/2000/svg" viewBox="0 0 24 24" id="fire">
        <path d="M8.4678 8.39457L8.46555 8.3964L8.46341 8.39848L8.4678 8.39457ZM18.4219 8.20804C18.3523 8.14099 18.2751 8.08232 18.1919 8.03323C18.0741 7.9639 17.9433 7.91946 17.8076 7.90268C17.672 7.88589 17.5343 7.89711 17.4031 7.93565C17.272 7.97418 17.1501 8.03921 17.0451 8.12671C16.9401 8.21421 16.8541 8.32233 16.7925 8.44437C16.448 9.12306 15.9729 9.72706 15.3945 10.2217C15.483 9.72332 15.5276 9.21813 15.5278 8.71194C15.5297 7.17205 15.1234 5.65915 14.3505 4.32731C13.5775 2.99546 12.4654 1.89223 11.1274 1.12994C10.98 1.04639 10.8138 1.00165 10.6444 0.99993C10.475 0.998205 10.3079 1.03955 10.1588 1.12009C10.0098 1.20062 9.88362 1.31771 9.7922 1.46036C9.70078 1.603 9.6471 1.76654 9.6362 1.93561C9.58024 2.88379 9.33236 3.81073 8.90759 4.66028C8.48282 5.50983 7.88999 6.2643 7.16503 6.87797L6.93456 7.06547C6.17648 7.57556 5.50546 8.20438 4.94726 8.92777C4.07958 10.0209 3.47851 11.3011 3.19172 12.667C2.90493 14.0328 2.94031 15.4467 3.29506 16.7964C3.6498 18.1462 4.31415 19.3948 5.23543 20.4431C6.1567 21.4915 7.30956 22.3107 8.60257 22.836C8.75439 22.898 8.91914 22.9217 9.08229 22.9051C9.24545 22.8884 9.40198 22.8318 9.5381 22.7403C9.67422 22.6488 9.78573 22.5252 9.8628 22.3805C9.93987 22.2357 9.98013 22.0742 9.98003 21.9102C9.97932 21.8041 9.96252 21.6988 9.93023 21.5977C9.7065 20.7567 9.64208 19.8813 9.74028 19.0166C10.6865 20.8014 12.2054 22.216 14.0528 23.0332C14.2783 23.1341 14.5332 23.1477 14.7681 23.0713C16.2277 22.6002 17.5425 21.7638 18.5878 20.6414C19.633 19.519 20.3739 18.148 20.74 16.6586C21.1061 15.1693 21.0853 13.611 20.6796 12.132C20.2739 10.6529 19.4967 9.30215 18.4219 8.20804ZM14.5171 21.0391C13.6454 20.5973 12.8765 19.977 12.2603 19.2186C11.6441 18.4601 11.1944 17.5804 10.9405 16.6368C10.8629 16.319 10.8029 15.9972 10.7608 15.6729C10.7322 15.4663 10.6398 15.2739 10.4965 15.1224C10.3532 14.971 10.1661 14.8681 9.96146 14.8282C9.89841 14.8157 9.8343 14.8095 9.77003 14.8096C9.59427 14.8096 9.42161 14.8558 9.26944 14.9438C9.11728 15.0318 8.991 15.1583 8.90333 15.3106C8.0736 16.7417 7.65633 18.3746 7.69776 20.0284C6.968 19.461 6.35811 18.7544 5.90344 17.9496C5.44876 17.1447 5.15835 16.2577 5.04903 15.3398C4.93971 14.4219 5.01366 13.4914 5.26658 12.6023C5.51951 11.7132 5.94639 10.8831 6.52247 10.1602C6.95989 9.59206 7.48756 9.09952 8.08447 8.70222C8.11032 8.68554 8.1351 8.66728 8.15869 8.64753C8.15869 8.64753 8.45538 8.40205 8.46552 8.39643C9.89022 7.1914 10.9035 5.57195 11.3643 3.76374C12.4538 4.77098 13.1804 6.10977 13.431 7.57225C13.6817 9.03473 13.4425 10.5391 12.7505 11.8516C12.6591 12.0268 12.6216 12.2251 12.6427 12.4215C12.6639 12.618 12.7427 12.8037 12.8693 12.9554C12.9959 13.1071 13.1646 13.2179 13.3541 13.2738C13.5436 13.3297 13.7454 13.3283 13.9341 13.2696C15.4659 12.7895 16.8138 11.8516 17.7964 10.5821C18.3869 11.4544 18.773 12.4487 18.9259 13.491C19.0787 14.5332 18.9944 15.5965 18.6792 16.6017C18.364 17.6068 17.826 18.5279 17.1054 19.2962C16.3847 20.0645 15.5 20.6603 14.5171 21.0391L14.5171 21.0391Z" fill="currentColor"></path>
    </symbol>
    <symbol fill="none" xmlns="http://www.w3.org/2000/svg" viewBox="0 0 48 48" id="hands">
        <path d="M42.9382 7.19842C42.2534 6.53107 41.348 6.17779 40.3926 6.20185C38.5048 6.25052 36.969 7.85069 36.969 9.76915V18.668C35.7321 18.2327 34.2986 18.5087 33.3113 19.4962L24.5413 28.2661C24.3447 28.4627 24.1647 28.6714 24.0002 28.8897C23.8356 28.6713 23.6555 28.4627 23.459 28.266L14.6891 19.4961C13.7018 18.5087 12.2683 18.2327 11.0313 18.6679V9.71633C11.0313 8.76007 10.6541 7.86585 9.96919 7.19842C9.28442 6.53107 8.37957 6.17763 7.42362 6.20185C5.53587 6.25052 4 7.85069 4 9.76915V22.9114C4 24.1103 4.33907 25.2793 4.98048 26.2919L11.4401 36.4906C12.0332 37.4269 12.3467 38.5077 12.3467 39.616V42.828C12.3467 43.4752 12.8714 43.9999 13.5186 43.9999H34.4819C35.1291 43.9999 35.6538 43.4752 35.6538 42.828V39.616C35.6538 38.5077 35.9672 37.4269 36.5603 36.4907L43.0199 26.292C43.6613 25.2793 44.0003 24.1103 44.0003 22.9114V9.71633C44.0003 8.76015 43.6231 7.86593 42.9382 7.19842ZM13.4202 35.2365L6.96049 25.0378C6.55697 24.4008 6.34377 23.6655 6.34377 22.9114V9.76915C6.34377 9.11031 6.85526 8.56109 7.48401 8.54492C7.80323 8.53718 8.10527 8.6546 8.33347 8.87695C8.56176 9.09945 8.68754 9.39758 8.68754 9.71633V22.0211C8.68754 22.0537 8.6898 22.0857 8.69238 22.1175C8.72504 22.9721 9.06621 23.817 9.71723 24.468L13.9917 28.7425C14.4493 29.2002 15.1913 29.2002 15.649 28.7425C16.1067 28.2848 16.1067 27.5429 15.649 27.0852L11.3745 22.8107C10.9176 22.3538 10.9176 21.6103 11.3745 21.1535C11.8315 20.6966 12.5749 20.6966 13.0319 21.1535L21.8016 29.9232C22.4637 30.5854 22.8283 31.4692 22.8283 32.4118V41.6561H14.6904V39.616C14.6904 38.063 14.2512 36.5486 13.4202 35.2365ZM41.6566 22.9114C41.6566 23.6655 41.4433 24.4008 41.0397 25.0378L34.5802 35.2365C33.7491 36.5485 33.3099 38.063 33.3099 39.616V41.6561H25.172V32.4118C25.172 31.4692 25.5367 30.5854 26.1986 29.9233L34.9685 21.1534C35.4256 20.6965 36.1689 20.6965 36.6258 21.1534C37.0805 21.5899 37.0805 22.3744 36.6255 22.811L32.3513 27.088C31.8939 27.5458 31.8941 28.2877 32.3519 28.7452C32.8095 29.2027 33.5515 29.2026 34.0092 28.7447L38.2831 24.468C38.9293 23.8218 39.2919 22.9682 39.311 22.0574C39.3114 22.0453 39.3128 22.0334 39.3128 22.0211V9.76915C39.3128 9.11031 39.8243 8.56109 40.453 8.54492C40.7706 8.53624 41.0742 8.6546 41.3025 8.87695C41.5308 9.09953 41.6566 9.39766 41.6566 9.71641V22.9114Z" fill="currentColor" stroke="currentColor"></path>
        <path d="M15.8338 14.3305C15.8839 14.3849 16.0564 14.5549 19.3399 17.7566C21.0524 19.4266 22.992 21.3179 23.1482 21.4754C23.3689 21.705 23.6738 21.8352 23.993 21.8352C24.3166 21.8353 24.6257 21.7014 24.8471 21.4659C25.0141 21.2939 26.8073 19.5484 28.3903 18.0074C31.1619 15.3094 32.0425 14.4503 32.1527 14.3307C32.1781 14.3033 32.2019 14.2748 32.2241 14.2455C36.0122 9.43712 32.5623 4.03856 27.6727 4.01536C26.3457 4.03583 25.087 4.49146 23.9811 5.34349C21.1334 3.18848 18.0002 3.88778 16.146 5.60232C13.6446 7.88742 13.5206 11.7039 15.7995 14.2916C15.8107 14.3048 15.8221 14.3178 15.8338 14.3305ZM17.7373 7.32312C18.9306 6.21944 21.0698 5.66568 23.1703 7.73711C23.3931 7.95672 23.6956 8.07789 24.0071 8.07445C24.3199 8.0707 24.6182 7.94211 24.8356 7.71726C26.1364 6.37194 28.3851 5.67279 30.2487 7.31617C31.4665 8.39016 32.2331 10.4575 30.4089 12.7627C30.1145 13.0582 28.2589 14.8646 26.7554 16.3281C25.4286 17.6197 24.5514 18.474 23.9918 19.0206C23.1937 18.2394 18.165 13.3402 17.5622 12.7459C16.3699 11.3025 15.9199 9.00384 17.7373 7.32312Z" fill="#4640DE" stroke="currentColor"></path>
    </symbol>
    <symbol fill="none" xmlns="http://www.w3.org/2000/svg" viewBox="0 0 25 24" id="instagram">
        <g opacity="0.5" clip-path="url(#clip0_30166_954)">
            <path d="M16.7998 4H8.7998C6.59067 4 4.7998 5.79086 4.7998 8V16C4.7998 18.2091 6.59067 20 8.7998 20H16.7998C19.0089 20 20.7998 18.2091 20.7998 16V8C20.7998 5.79086 19.0089 4 16.7998 4Z" stroke="currentColor" stroke-width="2" stroke-linecap="round" stroke-linejoin="round"></path>
            <path d="M12.7998 15C14.4567 15 15.7998 13.6569 15.7998 12C15.7998 10.3431 14.4567 9 12.7998 9C11.143 9 9.7998 10.3431 9.7998 12C9.7998 13.6569 11.143 15 12.7998 15Z" stroke="currentColor" stroke-width="2" stroke-linecap="round" stroke-linejoin="round"></path>
            <path d="M17.2998 7.5V7.501" stroke="currentColor" stroke-width="2" stroke-linecap="round" stroke-linejoin="round"></path>
        </g>
        <defs>
            <clipPath id="clip0_30166_954">
                <rect width="24" height="24" fill="white" transform="translate(0.799805)"></rect>
            </clipPath>
        </defs>
    </symbol>
    <symbol fill="none" xmlns="http://www.w3.org/2000/svg" viewBox="0 0 25 24" id="linkedin">
        <g opacity="0.5" clip-path="url(#clip0_30166_959)">
            <path d="M18.7998 4H6.7998C5.69524 4 4.7998 4.89543 4.7998 6V18C4.7998 19.1046 5.69524 20 6.7998 20H18.7998C19.9044 20 20.7998 19.1046 20.7998 18V6C20.7998 4.89543 19.9044 4 18.7998 4Z" stroke="currentColor" stroke-width="2" stroke-linecap="round" stroke-linejoin="round"></path>
            <path d="M8.7998 11V16" stroke="currentColor" stroke-width="2" stroke-linecap="round" stroke-linejoin="round"></path>
            <path d="M8.7998 8V8.01" stroke="currentColor" stroke-width="2" stroke-linecap="round" stroke-linejoin="round"></path>
            <path d="M12.7998 16V11" stroke="currentColor" stroke-width="2" stroke-linecap="round" stroke-linejoin="round"></path>
            <path d="M16.7998 16V13C16.7998 12.4696 16.5891 11.9609 16.214 11.5858C15.8389 11.2107 15.3302 11 14.7998 11C14.2694 11 13.7607 11.2107 13.3856 11.5858C13.0105 11.9609 12.7998 12.4696 12.7998 13" stroke="currentColor" stroke-width="2" stroke-linecap="round" stroke-linejoin="round"></path>
        </g>
        <defs>
            <clipPath id="clip0_30166_959">
                <rect width="24" height="24" fill="white" transform="translate(0.799805)"></rect>
            </clipPath>
        </defs>
    </symbol>
    <symbol fill="none" xmlns="http://www.w3.org/2000/svg" viewBox="0 0 11 10" id="linkedin2">
        <path fill-rule="evenodd" clip-rule="evenodd" d="M10.1394 10H8.14082V6.50049C8.14082 5.54049 7.71762 5.00488 6.95866 5.00488C6.13274 5.00488 5.64259 5.56299 5.64259 6.50049V10H3.64401V3.5H5.64259V4.23096C5.64259 4.23096 6.26964 3.12988 7.68264 3.12988C9.09614 3.12988 10.1394 3.99305 10.1394 5.77905V10ZM1.36662 2.46045C0.692598 2.46045 0.146484 1.90948 0.146484 1.22998C0.146484 0.55098 0.692598 0 1.36662 0C2.04014 0 2.58625 0.55098 2.58625 1.22998C2.58675 1.90948 2.04014 2.46045 1.36662 2.46045ZM0.146484 10H2.64471V3.5H0.146484V10Z" fill="white"></path>
    </symbol>
    <symbol xmlns="http://www.w3.org/2000/svg" fill="none" viewBox="0 0 45 43.00000000000001" id="logo-icon">
        <g>
            <path id="svg_1" fill="#4640DE" d="m31.97115,13.08744c-0.9662,1.2677 -1.875,2.4728 -2.8049,3.6615c-0.0865,0.1106 -0.305,0.1653 -0.4627,0.1659c-3.1599,0.0139 -6.3196,0.0145 -9.4795,0.0231c-0.396,0.0009 -0.793,0.0167 -1.1874,0.0512c-0.6135,0.0531 -0.9516,0.384 -0.9829,0.9279c-0.0326,0.5667 0.2329,0.9089 0.8464,1.0417c0.2553,0.0553 0.523,0.0752 0.785,0.0758c2.7044,0.0067 5.4088,0.0023 8.1129,0.0086c1.3796,0.0034 2.7245,0.1678 3.9452,0.8881c0.9553,0.5635 1.5128,1.4058 1.6043,2.4888c0.0586,0.6926 0.0178,1.4125 -0.1062,2.0971c-0.2394,1.3207 -1.0543,2.2302 -2.2665,2.7875c-1.0027,0.4608 -2.0646,0.6912 -3.1616,0.6938c-4.8058,0.0114 -9.6119,0.0029 -14.4178,0.0005c-0.043,0 -0.0856,-0.0135 -0.182,-0.0299c0.0648,-0.1109 0.109,-0.2095 0.1732,-0.2934c0.8128,-1.0596 1.6336,-2.113 2.4383,-3.1792c0.1596,-0.2116 0.3319,-0.2816 0.5913,-0.2809c3.5862,0.0048 7.1725,0.0022 10.7584,-0.0073c0.3352,-0.001 0.6779,-0.0268 1.0034,-0.1005c0.5596,-0.1266 0.8222,-0.5132 0.8071,-1.0975c-0.0133,-0.5001 -0.2783,-0.8149 -0.8349,-0.9214c-0.3138,-0.0599 -0.64,-0.0779 -0.9612,-0.0789c-2.7335,-0.0073 -5.4673,0.0043 -8.2011,-0.014c-1.017,-0.0068 -2.0167,-0.1609 -2.9645,-0.5663c-1.3021,-0.5572 -2.1188,-1.5136 -2.3293,-2.9194c-0.2405,-1.6046 0.1043,-3.0445 1.4042,-4.1276c0.8369,-0.6975 1.8555,-1.0047 2.913,-1.1498c0.7538,-0.103 1.5199,-0.1634 2.2806,-0.1653c4.1297,-0.011 8.2596,0.0019 12.3898,0.0073c0.0701,0 0.1403,0.006 0.2894,0.0126z"></path>
            <path id="svg_2" fill="#4640DE" d="m43.908,21.1795c-0.0338,3.9123 -0.7348,7.1052 -2.1885,10.127c-0.2435,0.5063 -0.4407,0.6411 -0.97,0.4325c-0.5651,-0.2228 -1.1354,-0.5065 -1.6014,-0.8877c-0.7355,-0.6018 -1.3909,-1.3022 -2.0648,-1.9764c-0.0714,-0.0713 -0.0903,-0.2707 -0.0458,-0.3719c1.0335,-2.3469 1.5344,-4.7974 1.4289,-7.3611c-0.1259,-3.0606 -1.0387,-5.8697 -2.771,-8.4028c-1.2933,-1.8913 -2.9127,-3.45066 -4.8682,-4.64627c-1.7048,-1.04233 -3.5373,-1.77588 -5.5114,-2.1267c-0.2591,-0.04613 -0.4022,-0.15675 -0.434,-0.40611c-0.1531,-1.21807 -0.3091,-2.4358 -0.4466,-3.65542c-0.0223,-0.19786 0.0273,-0.40866 0.0688,-0.6081c0.1848,-0.88872 0.2808,-0.95035 1.1752,-0.80307c5.2686,0.86819 9.6244,3.3457 13.0878,7.39967c2.5668,3.005 4.1957,6.4544 4.8424,10.3481c0.1915,1.1532 0.2392,2.3302 0.2986,2.9383z"></path>
            <path id="svg_3" fill="#4640DE" d="m0.84912,21.3531c0.35462,-7.3229 3.42059,-13.46022 9.85288,-17.72215c3.1108,-2.06096 6.5785,-3.19052 10.3149,-3.47781c0.505,-0.03887 0.7695,0.21081 0.7999,0.60398c0.0588,0.76515 0.0831,1.54832 -0.0168,2.30558c-0.0986,0.74871 -0.3802,1.47215 -0.5568,2.21265c-0.0617,0.25823 -0.1802,0.34577 -0.44,0.37326c-2.1706,0.23104 -4.2319,0.83406 -6.1364,1.90926c-4.621,2.60863 -7.32319,6.55833 -8.16386,11.77913c-0.42352,2.6289 -0.12454,5.1993 0.71646,7.7178c0.049,0.1468 0.03193,0.4028 -0.06383,0.4969c-0.92286,0.909 -1.90831,1.7474 -3.07895,2.3244c-0.3464,0.1706 -0.74557,0.2593 -1.13083,0.3128c-0.13684,0.019 -0.38874,-0.1436 -0.44468,-0.2813c-0.85018,-2.089 -1.402,-4.2518 -1.54074,-6.51c-0.03571,-0.5853 -0.06384,-1.1712 -0.11125,-2.0445z"></path>
            <path id="svg_4" fill="#4640DE" d="m43.908,21.1795c-0.0338,3.9123 -0.7348,7.1052 -2.1885,10.127c-0.2435,0.5063 -0.4407,0.6411 -0.97,0.4325c-0.5651,-0.2228 -1.1354,-0.5065 -1.6014,-0.8877c-0.7355,-0.6018 -1.3909,-1.3022 -2.0648,-1.9764c-0.0714,-0.0713 -0.0903,-0.2707 -0.0458,-0.3719c1.0335,-2.3469 1.5344,-4.7974 1.4289,-7.3611c-0.1259,-3.0606 -1.0387,-5.8697 -2.771,-8.4028c-1.2933,-1.8913 -2.9127,-3.45066 -4.8682,-4.64627c-1.7048,-1.04233 -3.5373,-1.77588 -5.5114,-2.1267c-0.2591,-0.04613 -0.4022,-0.15675 -0.434,-0.40611c-0.1531,-1.21807 -0.3091,-2.4358 -0.4466,-3.65542c-0.0223,-0.19786 0.0273,-0.40866 0.0688,-0.6081c0.1848,-0.88872 0.2808,-0.95035 1.1752,-0.80307c5.2686,0.86819 9.6244,3.3457 13.0878,7.39967c2.5668,3.005 4.1957,6.4544 4.8424,10.3481c0.1915,1.1532 0.2392,2.3302 0.2986,2.9383z"></path>
            <path transform="rotate(121.003 21.3847 34.3143)" stroke="null" id="svg_5" fill="#4640DE" d="m31.12391,39.36132c-0.0338,3.9123 -0.7348,7.1052 -2.1885,10.127c-0.2435,0.5063 -0.4407,0.6411 -0.97,0.4325c-0.5651,-0.2228 -1.1354,-0.5065 -1.6014,-0.8877c-0.7355,-0.6018 -1.3909,-1.3022 -2.0648,-1.9764c-0.0714,-0.0713 -0.0903,-0.2707 -0.0458,-0.3719c1.0335,-2.3469 1.5344,-4.7974 1.4289,-7.3611c-0.1259,-3.0606 -1.0387,-5.8697 -2.771,-8.4028c-1.2933,-1.8913 -2.9127,-3.45066 -4.8682,-4.64627c-1.7048,-1.04233 -3.5373,-1.77588 -5.5114,-2.1267c-0.2591,-0.04613 -0.4022,-0.15675 -0.434,-0.40611c-0.1531,-1.21807 -0.3091,-2.4358 -0.4466,-3.65542c-0.0223,-0.19786 0.0273,-0.40866 0.0688,-0.6081c0.1848,-0.88872 0.2808,-0.95035 1.1752,-0.80307c5.2686,0.86819 9.6244,3.3457 13.0878,7.39967c2.5668,3.005 4.1957,6.4544 4.8424,10.3481c0.1915,1.1532 0.2392,2.3302 0.2986,2.9383z"></path>
        </g>
    </symbol>
    <symbol fill="none" xmlns="http://www.w3.org/2000/svg" viewBox="0 0 24 24" id="mail">
        <path d="M17 21.25H7C3.35 21.25 1.25 19.15 1.25 15.5V8.5C1.25 4.85 3.35 2.75 7 2.75H17C20.65 2.75 22.75 4.85 22.75 8.5V15.5C22.75 19.15 20.65 21.25 17 21.25ZM7 4.25C4.14 4.25 2.75 5.64 2.75 8.5V15.5C2.75 18.36 4.14 19.75 7 19.75H17C19.86 19.75 21.25 18.36 21.25 15.5V8.5C21.25 5.64 19.86 4.25 17 4.25H7Z" fill="currentColor"></path>
        <path d="M11.9998 12.87C11.1598 12.87 10.3098 12.61 9.65978 12.08L6.52978 9.57997C6.20978 9.31997 6.14978 8.84997 6.40978 8.52997C6.66978 8.20997 7.13978 8.14997 7.45978 8.40997L10.5898 10.91C11.3498 11.52 12.6398 11.52 13.3998 10.91L16.5298 8.40997C16.8498 8.14997 17.3298 8.19997 17.5798 8.52997C17.8398 8.84997 17.7898 9.32997 17.4598 9.57997L14.3298 12.08C13.6898 12.61 12.8398 12.87 11.9998 12.87Z" fill="currentColor"></path>
    </symbol>
    <symbol fill="none" xmlns="http://www.w3.org/2000/svg" viewBox="0 0 24 24" id="marker">
        <path fill-rule="evenodd" clip-rule="evenodd" d="M14.5 10.5005C14.5 9.11924 13.3808 8 12.0005 8C10.6192 8 9.5 9.11924 9.5 10.5005C9.5 11.8808 10.6192 13 12.0005 13C13.3808 13 14.5 11.8808 14.5 10.5005Z" stroke="currentColor" stroke-width="2" stroke-linecap="round" stroke-linejoin="round"></path>
        <path fill-rule="evenodd" clip-rule="evenodd" d="M11.9995 21C10.801 21 4.5 15.8984 4.5 10.5633C4.5 6.38664 7.8571 3 11.9995 3C16.1419 3 19.5 6.38664 19.5 10.5633C19.5 15.8984 13.198 21 11.9995 21Z" stroke="currentColor" stroke-width="2" stroke-linecap="round" stroke-linejoin="round"></path>
    </symbol>
    <symbol fill="none" xmlns="http://www.w3.org/2000/svg" viewBox="0 0 24 24" id="people">
        <path fill-rule="evenodd" clip-rule="evenodd" d="M12 5C11.4696 5 10.9609 5.21071 10.5858 5.58579C10.2107 5.96086 10 6.46957 10 7C10 7.53043 10.2107 8.03914 10.5858 8.41421C10.9609 8.78929 11.4696 9 12 9C12.5304 9 13.0391 8.78929 13.4142 8.41421C13.7893 8.03914 14 7.53043 14 7C14 6.46957 13.7893 5.96086 13.4142 5.58579C13.0391 5.21071 12.5304 5 12 5ZM9.17157 4.17157C9.92172 3.42143 10.9391 3 12 3C13.0609 3 14.0783 3.42143 14.8284 4.17157C15.5786 4.92172 16 5.93913 16 7C16 8.06087 15.5786 9.07828 14.8284 9.82843C14.0783 10.5786 13.0609 11 12 11C10.9391 11 9.92172 10.5786 9.17157 9.82843C8.42143 9.07828 8 8.06087 8 7C8 5.93913 8.42143 4.92172 9.17157 4.17157ZM5 9C4.73478 9 4.48043 9.10536 4.29289 9.29289C4.10536 9.48043 4 9.73478 4 10C4 10.2652 4.10536 10.5196 4.29289 10.7071C4.48043 10.8946 4.73478 11 5 11C5.26522 11 5.51957 10.8946 5.70711 10.7071C5.89464 10.5196 6 10.2652 6 10C6 9.73478 5.89464 9.48043 5.70711 9.29289C5.51957 9.10536 5.26522 9 5 9ZM2.87868 7.87868C3.44129 7.31607 4.20435 7 5 7C5.79565 7 6.55871 7.31607 7.12132 7.87868C7.68393 8.44129 8 9.20435 8 10C8 10.7956 7.68393 11.5587 7.12132 12.1213C6.55871 12.6839 5.79565 13 5 13C4.20435 13 3.44129 12.6839 2.87868 12.1213C2.31607 11.5587 2 10.7956 2 10C2 9.20435 2.31607 8.44129 2.87868 7.87868ZM19 9C18.7348 9 18.4804 9.10536 18.2929 9.29289C18.1054 9.48043 18 9.73478 18 10C18 10.2652 18.1054 10.5196 18.2929 10.7071C18.4804 10.8946 18.7348 11 19 11C19.2652 11 19.5196 10.8946 19.7071 10.7071C19.8946 10.5196 20 10.2652 20 10C20 9.73478 19.8946 9.48043 19.7071 9.29289C19.5196 9.10536 19.2652 9 19 9ZM16.8787 7.87868C17.4413 7.31607 18.2043 7 19 7C19.7957 7 20.5587 7.31607 21.1213 7.87868C21.6839 8.44129 22 9.20435 22 10C22 10.7957 21.6839 11.5587 21.1213 12.1213C20.5587 12.6839 19.7957 13 19 13C18.2043 13 17.4413 12.6839 16.8787 12.1213C16.3161 11.5587 16 10.7957 16 10C16 9.20435 16.3161 8.44129 16.8787 7.87868ZM12 13.9993C11.2003 13.9993 10.4189 14.2389 9.75658 14.6872C9.13228 15.1098 8.64084 15.6996 8.33765 16.3878L8.09655 19H15.9034L15.6623 16.3878C15.3592 15.6996 14.8677 15.1098 14.2434 14.6872C13.5811 14.2389 12.7997 13.9993 12 13.9993ZM18 19H21V18.0001C21 18 21 18.0001 21 18.0001C21 17.5845 20.8704 17.1791 20.6294 16.8405C20.3884 16.5019 20.0479 16.2467 19.6552 16.1106C19.2625 15.9744 18.8371 15.964 18.4382 16.0808C18.2014 16.1501 17.981 16.2621 17.7871 16.41C17.9262 16.9175 18 17.451 18 18V19ZM16.9298 14.5776C16.51 13.9732 15.9804 13.4479 15.3646 13.031C14.3713 12.3587 13.1994 11.9993 12 11.9993C10.8006 11.9993 9.62867 12.3587 8.63543 13.031C8.01963 13.4479 7.49002 13.9732 7.07024 14.5776C6.77575 14.3995 6.45782 14.2591 6.12365 14.1613C5.32584 13.9278 4.47509 13.9486 3.68967 14.2209C2.90425 14.4932 2.22318 15.0035 1.74115 15.6808C1.25911 16.358 1.00006 17.1686 1 17.9999V20C1 20.5523 1.44772 21 2 21H22C22.5523 21 23 20.5523 23 20V18C22.9999 17.1687 22.7409 16.358 22.2589 15.6808C21.7768 15.0035 21.0958 14.4932 20.3103 14.2209C19.5249 13.9486 18.6742 13.9278 17.8763 14.1613C17.5422 14.2591 17.2242 14.3995 16.9298 14.5776ZM6.21295 16.41C6.01904 16.2621 5.79859 16.1501 5.56183 16.0808C5.16292 15.964 4.73754 15.9744 4.34483 16.1106C3.95212 16.2467 3.61159 16.5019 3.37057 16.8405C3.12957 17.1791 3.00005 17.5844 3 18C3 18 3 18 3 18V19H6V18C6 17.451 6.07383 16.9175 6.21295 16.41Z" fill="currentColor"></path>
    </symbol>
    <symbol fill="none" xmlns="http://www.w3.org/2000/svg" viewBox="0 0 24 24" id="phone">
        <path d="M19.7739 22.5517C20.5331 22.2458 21.1833 21.7721 21.775 21.1181C22.1222 20.7392 22.3961 20.3281 22.6165 19.8557C22.8412 19.3743 22.96 18.8583 22.96 18.34C22.96 17.9546 22.8825 17.5735 22.7225 17.1682L22.7226 17.1682L22.7204 17.163C22.5403 16.7352 22.2377 16.379 21.8325 16.1045L18.5148 13.7462L18.5134 13.7452C18.199 13.5251 17.9036 13.3666 17.6274 13.2498L17.6257 13.249C16.8605 12.932 16.0789 12.9914 15.4567 13.3723C15.1406 13.5373 14.8232 13.7834 14.5038 14.1026C14.5036 14.1028 14.5034 14.103 14.5032 14.1032L13.9466 14.6522C13.7385 14.5294 13.4223 14.3088 12.971 13.9288L12.9692 13.9273C12.5181 13.5546 12.0348 13.1012 11.447 12.5234C10.9926 12.059 10.5369 11.554 10.0492 10.9966C9.66481 10.5452 9.4411 10.2269 9.31494 10.023L9.86869 9.44487C10.1673 9.14594 10.4123 8.8396 10.5765 8.54507C10.8058 8.16159 10.93 7.74883 10.93 7.32C10.93 6.99108 10.851 6.65859 10.7111 6.33456C10.5919 6.03233 10.4212 5.7355 10.2032 5.43438C10.203 5.43405 10.2027 5.43371 10.2025 5.43337L7.88594 2.16823C7.6187 1.76865 7.25266 1.47067 6.82561 1.2734C6.45211 1.0978 6.01605 1 5.59 1C4.57708 1 3.63688 1.41117 2.82682 2.20967C2.19234 2.80319 1.72134 3.493 1.42743 4.23828L1.42719 4.2389C1.14556 4.95861 1 5.72957 1 6.54C1 7.70846 1.26882 8.94133 1.79945 10.2067L1.7997 10.2073C2.29816 11.3873 2.99804 12.6034 3.8668 13.8156L3.86678 13.8156L3.86834 13.8178C4.72559 14.9877 5.69362 16.1271 6.7624 17.2059L6.76238 17.206L6.7649 17.2084C7.8433 18.2667 8.98233 19.2344 10.1619 20.1014L10.1639 20.1028C11.3564 20.9619 12.5825 21.6717 13.8022 22.1901L13.8027 22.1903C15.0569 22.7205 16.2801 23 17.45 23C18.272 23 19.0539 22.8438 19.7739 22.5517ZM19.7739 22.5517C19.7738 22.5518 19.7736 22.5518 19.7734 22.5519L19.68 22.32M19.7739 22.5517C19.774 22.5517 19.774 22.5517 19.774 22.5517L19.68 22.32M19.68 22.32C20.4 22.03 21.02 21.58 21.59 20.95L13.9 21.96C15.13 22.48 16.32 22.75 17.45 22.75C18.24 22.75 18.99 22.6 19.68 22.32ZM16.96 14.85L16.8648 15.0812C17.0144 15.1428 17.1781 15.2329 17.366 15.3643C17.3662 15.3645 17.3664 15.3646 17.3666 15.3648L20.6852 17.7238L20.6851 17.7238L20.6888 17.7263C20.7665 17.7795 20.8112 17.8241 20.8376 17.8558C20.8611 17.8842 20.8736 17.9067 20.8839 17.9268C20.9479 18.0725 20.97 18.1964 20.97 18.32C20.97 18.5408 20.9192 18.764 20.8146 18.9818L20.8136 18.9839C20.674 19.2817 20.5081 19.5303 20.296 19.7607L20.296 19.7607L20.2934 19.7637C19.9069 20.1973 19.4876 20.4942 19.0148 20.6888L19.0138 20.6892C17.7799 21.2034 16.2548 21.0559 14.5782 20.3401L14.5765 20.3394C13.497 19.8879 12.404 19.2583 11.3376 18.4782L11.3374 18.4781C10.2379 17.6758 9.16775 16.7642 8.17675 15.7832C7.18578 14.7822 6.28433 13.7222 5.49218 12.633C4.70189 11.5463 4.08182 10.4627 3.64015 9.42237C3.21091 8.40774 3 7.43094 3 6.54C3 5.97914 3.09488 5.46126 3.29181 4.97362L3.29182 4.97362L3.29274 4.97127C3.47809 4.49865 3.77576 4.05922 4.21072 3.65263L4.21077 3.65268L4.21494 3.64859C4.67144 3.20141 5.12185 3 5.59 3C5.71996 3 5.85493 3.03044 5.98696 3.0878C6.09553 3.13897 6.18133 3.21012 6.25625 3.31487C6.25635 3.31501 6.25646 3.31516 6.25657 3.31531L8.5759 6.59437L8.57586 6.59439L8.57874 6.5983C8.71159 6.7786 8.80997 6.94141 8.87007 7.07817C8.9137 7.18346 8.93 7.26746 8.93 7.3C8.93 7.34521 8.91773 7.41042 8.85709 7.50898L8.85704 7.50895L8.85452 7.51325C8.76783 7.66061 8.63234 7.8341 8.44322 8.02322L8.44319 8.02319L8.43979 8.02672L7.69143 8.80502C7.39437 9.103 7.24 9.48648 7.24 9.91C7.24 10.0802 7.26554 10.2333 7.3281 10.4731L7.33206 10.4883L7.33788 10.5028L7.45788 10.8028L7.46315 10.816L7.46988 10.8285C7.69191 11.2409 8.04467 11.7262 8.51994 12.2824L8.52087 12.2835C9.03432 12.8775 9.52785 13.4113 10.0214 13.915L10.0214 13.915L10.0246 13.9182C10.6577 14.5412 11.1821 15.0253 11.6676 15.4401L11.6682 15.4406C12.2062 15.8974 12.701 16.2491 13.1318 16.4803L13.14 16.4847L13.1485 16.4885L13.4185 16.6085L13.4258 16.6117L13.4333 16.6145C13.9758 16.815 14.6795 16.7121 15.1445 16.2591L15.1456 16.2579L15.9056 15.5079L15.9068 15.5068C16.0996 15.3139 16.2573 15.1859 16.4218 15.1036L16.4318 15.0986L16.4414 15.0927C16.5937 14.9986 16.6456 15.0005 16.6598 15.0017C16.6708 15.0026 16.687 15.0059 16.7209 15.0194C16.7383 15.0264 16.7571 15.0346 16.782 15.0456L16.7842 15.0466C16.8075 15.0568 16.8352 15.069 16.8653 15.0814L16.96 14.85ZM16.96 14.85C16.933 14.839 16.908 14.8279 16.8842 14.8174C16.7142 14.7424 16.6083 14.6958 16.31 14.88M16.96 14.85C17.13 14.92 17.31 15.02 17.51 15.16L16.31 14.88M16.31 14.88C16.11 14.98 15.93 15.13 15.73 15.33L16.31 14.88ZM19.11 20.92C17.79 21.47 16.19 21.3 14.48 20.57C13.38 20.11 12.27 19.47 11.19 18.68L19.11 20.92ZM19.11 20.92C19.62 20.71 20.07 20.39 20.48 19.93L19.11 20.92Z" fill="currentColor" stroke="currentColor" stroke-width="0.5"></path>
    </symbol>
    <symbol fill="none" xmlns="http://www.w3.org/2000/svg" viewBox="0 0 24 24" id="planet">
        <g clip-path="url(#clip0_30166_125)">
            <path d="M12 21C16.9706 21 21 16.9706 21 12C21 7.02944 16.9706 3 12 3C7.02944 3 3 7.02944 3 12C3 16.9706 7.02944 21 12 21Z" stroke="currentColor" stroke-width="2" stroke-linecap="round" stroke-linejoin="round"></path>
            <path d="M3.6001 9H20.4001" stroke="currentColor" stroke-width="2" stroke-linecap="round" stroke-linejoin="round"></path>
            <path d="M3.6001 15H20.4001" stroke="currentColor" stroke-width="2" stroke-linecap="round" stroke-linejoin="round"></path>
            <path d="M11.5002 3C9.8155 5.69961 8.92236 8.81787 8.92236 12C8.92236 15.1821 9.8155 18.3004 11.5002 21" stroke="currentColor" stroke-width="2" stroke-linecap="round" stroke-linejoin="round"></path>
            <path d="M12.5 3C14.1847 5.69961 15.0778 8.81787 15.0778 12C15.0778 15.1821 14.1847 18.3004 12.5 21" stroke="currentColor" stroke-width="2" stroke-linecap="round" stroke-linejoin="round"></path>
        </g>
        <defs>
            <clipPath id="clip0_30166_125">
                <rect width="24" height="24" fill="white"></rect>
            </clipPath>
        </defs>
    </symbol>
    <symbol fill="none" xmlns="http://www.w3.org/2000/svg" viewBox="0 0 21 20" id="plus">
        <g clip-path="url(#clip0_30166_486)">
            <path fill-rule="evenodd" clip-rule="evenodd" d="M10.4998 3.33325C10.9601 3.33325 11.3332 3.70635 11.3332 4.16659V15.8333C11.3332 16.2935 10.9601 16.6666 10.4998 16.6666C10.0396 16.6666 9.6665 16.2935 9.6665 15.8333V4.16659C9.6665 3.70635 10.0396 3.33325 10.4998 3.33325Z" fill="#4640DE"></path>
            <path fill-rule="evenodd" clip-rule="evenodd" d="M3.8335 10.0001C3.8335 9.53984 4.20659 9.16675 4.66683 9.16675H16.3335C16.7937 9.16675 17.1668 9.53984 17.1668 10.0001C17.1668 10.4603 16.7937 10.8334 16.3335 10.8334H4.66683C4.20659 10.8334 3.8335 10.4603 3.8335 10.0001Z" fill="#4640DE"></path>
        </g>
        <defs>
            <clipPath id="clip0_30166_486">
                <rect width="20" height="20" fill="white" transform="translate(0.5)"></rect>
            </clipPath>
        </defs>
    </symbol>
    <symbol fill="none" xmlns="http://www.w3.org/2000/svg" viewBox="0 0 17 17" id="star">
        <path d="M8.75 1.375L10.8744 5.67875L15.625 6.37313L12.1875 9.72125L12.9988 14.4513L8.75 12.2169L4.50125 14.4513L5.3125 9.72125L1.875 6.37313L6.62562 5.67875L8.75 1.375Z" fill="#4640DE" stroke="#4640DE" stroke-width="0.75" stroke-linecap="round" stroke-linejoin="round"></path>
    </symbol>
    <symbol fill="none" xmlns="http://www.w3.org/2000/svg" viewBox="0 0 24 24" id="train">
        <g clip-path="url(#clip0_30166_157)">
            <path d="M21 13C21 9.13 17.63 6 11 6H3" stroke="currentColor" stroke-width="2" stroke-linecap="round" stroke-linejoin="round"></path>
            <path d="M3 15H19C19.5304 15 20.0391 14.7893 20.4142 14.4142C20.7893 14.0391 21 13.5304 21 13" stroke="currentColor" stroke-width="2" stroke-linecap="round" stroke-linejoin="round"></path>
            <path d="M3 6V11H20.5" stroke="currentColor" stroke-width="2" stroke-linecap="round" stroke-linejoin="round"></path>
            <path d="M3 10V14" stroke="currentColor" stroke-width="2" stroke-linecap="round" stroke-linejoin="round"></path>
            <path d="M8 11V6" stroke="currentColor" stroke-width="2" stroke-linecap="round" stroke-linejoin="round"></path>
            <path d="M13 11V6.5" stroke="currentColor" stroke-width="2" stroke-linecap="round" stroke-linejoin="round"></path>
            <path d="M3 19H21" stroke="currentColor" stroke-width="2" stroke-linecap="round" stroke-linejoin="round"></path>
        </g>
        <defs>
            <clipPath id="clip0_30166_157">
                <rect width="24" height="24" fill="white"></rect>
            </clipPath>
        </defs>
    </symbol>
    <symbol fill="none" xmlns="http://www.w3.org/2000/svg" viewBox="0 0 48 48" id="tv">
        <path d="M19.5 34L18 40L16 42H32L30 40L28.5 34H19.5ZM6 26H42H6ZM10 34H38C39.0609 34 40.0783 33.5786 40.8284 32.8284C41.5786 32.0783 42 31.0609 42 30V10C42 8.93913 41.5786 7.92172 40.8284 7.17157C40.0783 6.42143 39.0609 6 38 6H10C8.93913 6 7.92172 6.42143 7.17157 7.17157C6.42143 7.92172 6 8.93913 6 10V30C6 31.0609 6.42143 32.0783 7.17157 32.8284C7.92172 33.5786 8.93913 34 10 34Z" stroke="currentColor" stroke-width="4" stroke-linecap="round" stroke-linejoin="round"></path>
    </symbol>
    <symbol fill="none" xmlns="http://www.w3.org/2000/svg" viewBox="0 0 24 24" id="twitter">
        <path d="M22 5.79997C21.2483 6.12606 20.4534 6.34163 19.64 6.43997C20.4982 5.92729 21.1413 5.12075 21.45 4.16997C20.6436 4.65003 19.7608 4.98826 18.84 5.16997C18.2245 4.50254 17.405 4.05826 16.5098 3.90682C15.6147 3.75537 14.6945 3.90532 13.8938 4.33315C13.093 4.76099 12.4569 5.4425 12.0852 6.2708C11.7135 7.09911 11.6273 8.02736 11.84 8.90997C10.2094 8.82749 8.61444 8.40292 7.15865 7.66383C5.70287 6.92474 4.41885 5.88766 3.39 4.61997C3.02914 5.25013 2.83952 5.96379 2.84 6.68997C2.83872 7.36435 3.00422 8.02858 3.32176 8.62353C3.63929 9.21848 4.09902 9.72568 4.66 10.1C4.00798 10.0822 3.36989 9.90726 2.8 9.58997V9.63997C2.80489 10.5849 3.13599 11.4991 3.73731 12.2279C4.33864 12.9568 5.17326 13.4556 6.1 13.64C5.74326 13.7485 5.37287 13.8058 5 13.81C4.74189 13.807 4.48442 13.7835 4.23 13.74C4.49391 14.5528 5.00462 15.2631 5.69107 15.7721C6.37753 16.2811 7.20558 16.5635 8.06 16.58C6.6172 17.7152 4.83588 18.3348 3 18.34C2.66574 18.3411 2.33174 18.321 2 18.28C3.87443 19.4902 6.05881 20.1327 8.29 20.13C9.82969 20.146 11.3571 19.855 12.7831 19.274C14.2091 18.6931 15.505 17.8338 16.5952 16.7465C17.6854 15.6591 18.548 14.3654 19.1326 12.9409C19.7172 11.5164 20.012 9.98969 20 8.44997C20 8.27996 20 8.09997 20 7.91997C20.7847 7.33478 21.4615 6.61739 22 5.79997Z" fill="currentColor"></path>
    </symbol>
    <symbol fill="none" xmlns="http://www.w3.org/2000/svg" viewBox="0 0 48 48" id="wc">
        <mask id="mask0_30166_636" maskUnits="userSpaceOnUse" x="0" y="0" width="48" height="48">
            <rect width="48" height="48" fill="currentColor"></rect>
        </mask>
        <g mask="url(#mask0_30166_636)">
            <path d="M11 44V29H8V18C8 16.9 8.39167 15.9583 9.175 15.175C9.95833 14.3917 10.9 14 12 14H18C19.1 14 20.0417 14.3917 20.825 15.175C21.6083 15.9583 22 16.9 22 18V29H19V44H11ZM15 12C13.9 12 12.9583 11.6083 12.175 10.825C11.3917 10.0417 11 9.1 11 8C11 6.9 11.3917 5.95833 12.175 5.175C12.9583 4.39167 13.9 4 15 4C16.1 4 17.0417 4.39167 17.825 5.175C18.6083 5.95833 19 6.9 19 8C19 9.1 18.6083 10.0417 17.825 10.825C17.0417 11.6083 16.1 12 15 12ZM30 44V32H24L29.1 16.7C29.3667 15.8333 29.8583 15.1667 30.575 14.7C31.2917 14.2333 32.1 14 33 14C33.9 14 34.7083 14.2333 35.425 14.7C36.1417 15.1667 36.6333 15.8333 36.9 16.7L42 32H36V44H30ZM33 12C31.9 12 30.9583 11.6083 30.175 10.825C29.3917 10.0417 29 9.1 29 8C29 6.9 29.3917 5.95833 30.175 5.175C30.9583 4.39167 31.9 4 33 4C34.1 4 35.0417 4.39167 35.825 5.175C36.6083 5.95833 37 6.9 37 8C37 9.1 36.6083 10.0417 35.825 10.825C35.0417 11.6083 34.1 12 33 12Z" fill="currentColor"></path>
        </g>
    </symbol>
    <symbol fill="none" xmlns="http://www.w3.org/2000/svg" viewBox="0 0 48 48" id="sofa">
        <mask id="mask0_30166_641" maskUnits="userSpaceOnUse" x="0" y="0" width="48" height="48">
            <rect width="48" height="48" fill="currentColor"></rect>
        </mask>
        <g mask="url(#mask0_30166_641)">
            <path d="M8 14C8 12.3333 8.58333 10.9167 9.75 9.75C10.9167 8.58333 12.3333 8 14 8H34C35.6667 8 37.0833 8.58333 38.25 9.75C39.4167 10.9167 40 12.3333 40 14V18C41.6667 18 43.0833 18.5833 44.25 19.75C45.4167 20.9167 46 22.3333 46 24V34C46 35.6667 45.4167 37.0833 44.25 38.25C43.0833 39.4167 41.6667 40 40 40H8C6.33333 40 4.91667 39.4167 3.75 38.25C2.58333 37.0833 2 35.6667 2 34V24C2 22.3333 2.58333 20.9167 3.75 19.75C4.91667 18.5833 6.33333 18 8 18V14ZM12 14V19.6C12.6 20.1667 13.0833 20.8167 13.45 21.55C13.8167 22.2833 14 23.1 14 24V28H34V24C34 23.1 34.1833 22.2833 34.55 21.55C34.9167 20.8167 35.4 20.1667 36 19.6V14C36 13.4333 35.8083 12.9583 35.425 12.575C35.0417 12.1917 34.5667 12 34 12H14C13.4333 12 12.9583 12.1917 12.575 12.575C12.1917 12.9583 12 13.4333 12 14ZM38 32H10V24C10 23.7333 9.95 23.475 9.85 23.225C9.75 22.975 9.60833 22.7583 9.425 22.575C9.24167 22.3917 9.025 22.25 8.775 22.15C8.525 22.05 8.26667 22 8 22C7.43333 22 6.95833 22.1917 6.575 22.575C6.19167 22.9583 6 23.4333 6 24V34C6 34.5667 6.19167 35.0417 6.575 35.425C6.95833 35.8083 7.43333 36 8 36H40C40.5667 36 41.0417 35.8083 41.425 35.425C41.8083 35.0417 42 34.5667 42 34V24C42 23.4333 41.8083 22.9583 41.425 22.575C41.0417 22.1917 40.5667 22 40 22C39.7333 22 39.475 22.05 39.225 22.15C38.975 22.25 38.7583 22.3917 38.575 22.575C38.3917 22.7583 38.25 22.975 38.15 23.225C38.05 23.475 38 23.7333 38 24V32Z" fill="currentColor"></path>
        </g>
    </symbol>
    <symbol fill="none" xmlns="http://www.w3.org/2000/svg" viewBox="0 0 48 48" id="wifi">
        <mask id="mask0_30166_627" maskUnits="userSpaceOnUse" x="0" y="0" width="48" height="48">
            <rect width="48" height="48" fill="currentColor"></rect>
        </mask>
        <g mask="url(#mask0_30166_627)">
            <path d="M24 42C22.6 42 21.4167 41.5167 20.45 40.55C19.4833 39.5833 19 38.4 19 37C19 35.6 19.4833 34.4167 20.45 33.45C21.4167 32.4833 22.6 32 24 32C25.4 32 26.5833 32.4833 27.55 33.45C28.5167 34.4167 29 35.6 29 37C29 38.4 28.5167 39.5833 27.55 40.55C26.5833 41.5167 25.4 42 24 42ZM12.7 30.7L8.5 26.4C10.4667 24.4333 12.775 22.875 15.425 21.725C18.075 20.575 20.9333 20 24 20C27.0667 20 29.925 20.5833 32.575 21.75C35.225 22.9167 37.5333 24.5 39.5 26.5L35.3 30.7C33.8333 29.2333 32.1333 28.0833 30.2 27.25C28.2667 26.4167 26.2 26 24 26C21.8 26 19.7333 26.4167 17.8 27.25C15.8667 28.0833 14.1667 29.2333 12.7 30.7ZM4.2 22.2L0 18C3.06667 14.8667 6.65 12.4167 10.75 10.65C14.85 8.88333 19.2667 8 24 8C28.7333 8 33.15 8.88333 37.25 10.65C41.35 12.4167 44.9333 14.8667 48 18L43.8 22.2C41.2333 19.6333 38.2583 17.625 34.875 16.175C31.4917 14.725 27.8667 14 24 14C20.1333 14 16.5083 14.725 13.125 16.175C9.74167 17.625 6.76667 19.6333 4.2 22.2Z" fill="currentColor"></path>
        </g>
    </symbol>
</svg>
